<svg width="177" height="35" viewBox="0 0 177 35" fill="none" xmlns="http://www.w3.org/2000/svg">
<path d="M7.104 32.032C8.48 31.84 9.632 31.36 10.56 30.592V4.96C9.44 4.992 8.144 5.072 6.672 5.2L5.712 5.248C5.2 5.952 4.768 6.832 4.416 7.888C4.096 8.912 3.92 9.888 3.888 10.816C3.312 10.912 2.736 10.96 2.16 10.96C1.648 10.96 1.12 10.912 0.576 10.816V1.792C5.504 1.92 10 1.984 14.064 1.984C16.496 1.984 19.04 1.968 21.696 1.936C24.384 1.872 26.352 1.824 27.6 1.792V10.816C27.088 10.912 26.56 10.96 26.016 10.96C25.44 10.96 24.864 10.912 24.288 10.816C24.16 9.76 23.936 8.752 23.616 7.792C23.328 6.8 22.976 5.968 22.56 5.296C20.96 5.072 19.312 4.944 17.616 4.912V30.592C18.288 31.232 19.488 31.712 21.216 32.032L20.88 34H6.912L7.104 32.032ZM36.3371 34.336C32.6251 34.336 29.8251 33.296 27.9371 31.216C26.0811 29.104 25.1531 26.224 25.1531 22.576C25.1531 18.768 26.1451 15.792 28.1291 13.648C30.1131 11.472 32.9771 10.384 36.7211 10.384C40.3051 10.384 42.8491 11.216 44.3531 12.88C45.8571 14.544 46.7051 17.024 46.8971 20.32L45.5531 22.336H32.0171V23.104C32.0171 25.792 32.4011 27.792 33.1691 29.104C33.9371 30.384 35.3771 31.024 37.4891 31.024C38.7051 31.024 39.8891 30.816 41.0411 30.4C42.2251 29.952 43.2491 29.28 44.1131 28.384L46.0331 30.256C44.7211 31.568 43.3451 32.576 41.9051 33.28C40.4971 33.984 38.6411 34.336 36.3371 34.336ZM40.0811 20.032C40.0811 17.472 39.8251 15.616 39.3131 14.464C38.8011 13.312 37.8731 12.736 36.5291 12.736C33.6171 12.736 32.1131 15.296 32.0171 20.416L40.0811 20.032ZM48.201 32.032C49.097 31.968 49.721 31.744 50.073 31.36L56.985 23.296L50.265 13.792C50.041 13.472 49.753 13.248 49.401 13.12C49.081 12.96 48.633 12.816 48.057 12.688L48.345 10.816H59.961L59.625 12.784C58.761 12.88 58.137 13.088 57.753 13.408L61.401 18.544L65.337 13.648C64.825 13.168 64.089 12.848 63.129 12.688L63.417 10.768H72.009L71.721 12.736C70.601 12.8 69.849 13.056 69.465 13.504L63.225 21.136L70.281 31.024C70.665 31.568 71.385 31.936 72.441 32.128L72.153 34H60.489L60.873 32.032C61.609 32.032 62.233 31.824 62.745 31.408L58.809 25.84L54.249 31.168C55.049 31.616 55.961 31.936 56.985 32.128L56.697 34H47.865L48.201 32.032ZM82.5398 34.192C80.8118 34.192 79.4038 33.728 78.3158 32.8C77.2278 31.872 76.6838 30.464 76.6838 28.576V14.176H73.2758V11.968C74.8438 11.36 76.2358 10.56 77.4518 9.568C78.6998 8.544 79.6918 7.344 80.4278 5.968H83.5478V11.056H89.6918V14.176H83.4998V28.192C83.4998 29.088 83.7078 29.744 84.1238 30.16C84.5398 30.544 85.0998 30.736 85.8038 30.736C86.3478 30.736 86.9238 30.624 87.5318 30.4C88.1718 30.176 88.7478 29.888 89.2598 29.536L90.2198 31.216C89.2278 32.112 88.0278 32.832 86.6198 33.376C85.2438 33.92 83.8838 34.192 82.5398 34.192ZM92.151 32.032C92.759 31.904 93.223 31.76 93.543 31.6C93.895 31.44 94.263 31.184 94.647 30.832V17.008C94.647 15.856 94.423 15.072 93.975 14.656C93.559 14.208 92.791 13.952 91.671 13.888L91.815 12.016C92.295 11.92 93.159 11.776 94.407 11.584C97.831 11.008 99.895 10.608 100.599 10.384L101.415 10.816V30.832C102.215 31.44 103.239 31.872 104.487 32.128L104.295 34H91.959L92.151 32.032ZM97.575 7.504C96.295 7.504 95.335 7.216 94.695 6.64C94.055 6.064 93.735 5.232 93.735 4.144C93.735 1.904 95.015 0.783998 97.575 0.783998C98.823 0.783998 99.767 1.072 100.407 1.648C101.047 2.224 101.367 3.056 101.367 4.144C101.367 5.232 101.047 6.064 100.407 6.64C99.767 7.216 98.823 7.504 97.575 7.504ZM117.525 34.336C113.813 34.336 111.013 33.296 109.125 31.216C107.269 29.104 106.341 26.224 106.341 22.576C106.341 18.768 107.333 15.792 109.317 13.648C111.301 11.472 114.165 10.384 117.909 10.384C121.493 10.384 124.037 11.216 125.541 12.88C127.045 14.544 127.893 17.024 128.085 20.32L126.741 22.336H113.205V23.104C113.205 25.792 113.589 27.792 114.357 29.104C115.125 30.384 116.565 31.024 118.677 31.024C119.893 31.024 121.077 30.816 122.229 30.4C123.413 29.952 124.437 29.28 125.301 28.384L127.221 30.256C125.909 31.568 124.533 32.576 123.093 33.28C121.685 33.984 119.829 34.336 117.525 34.336ZM121.269 20.032C121.269 17.472 121.013 15.616 120.501 14.464C119.989 13.312 119.061 12.736 117.717 12.736C114.805 12.736 113.301 15.296 113.205 20.416L121.269 20.032Z" fill="#222824"/>
<path d="M129.846 32.08C130.646 32.048 131.302 31.904 131.814 31.648C132.358 31.392 132.71 31.056 132.87 30.64L142.998 1.984H147.99L158.214 30.16C158.406 30.672 158.726 31.088 159.174 31.408C159.654 31.696 160.342 31.92 161.238 32.08L160.998 34H147.846L148.134 32.08C149.606 31.856 150.566 31.456 151.014 30.88L148.758 24.016H138.87L136.566 30.64C137.462 31.376 138.822 31.856 140.646 32.08L140.406 34H129.558L129.846 32.08ZM147.75 20.992L144.006 9.472L139.926 20.992H147.75ZM162.741 32.032C164.181 31.808 165.333 31.328 166.197 30.592V5.392C165.877 5.072 165.365 4.784 164.661 4.528C163.957 4.24 163.253 4.048 162.549 3.952L162.789 1.984H176.853L176.565 3.952C175.797 4.112 175.173 4.288 174.693 4.48C174.213 4.672 173.733 4.976 173.253 5.392V30.592C173.893 31.2 175.093 31.68 176.853 32.032L176.517 34H162.549L162.741 32.032Z" fill="#3DB57B"/>
</svg>
